<?xml version="1.0" standalone="no"?>
<!DOCTYPE svg PUBLIC "-//W3C//DTD SVG 20010904//EN" "http://www.w3.org/TR/2001/REC-SVG-20010904/DTD/svg10.dtd">
<!-- Created using Krita: https://krita.org -->
<svg xmlns="http://www.w3.org/2000/svg" 
    xmlns:xlink="http://www.w3.org/1999/xlink"
    xmlns:krita="http://krita.org/namespaces/svg/krita"
    xmlns:sodipodi="http://sodipodi.sourceforge.net/DTD/sodipodi-0.dtd"
    width="122.88pt"
    height="122.88pt"
    viewBox="0 0 122.88 122.88">
<defs/>
<path id="shape0" transform="matrix(1.00059232267584 0 0 1 31.0150253458206 42.4925)" fill="none" stroke="#ffffff" stroke-width="12" stroke-linecap="round" stroke-linejoin="miter" stroke-miterlimit="1.91999995708466" d="M0 0L49.3807 54.675" sodipodi:nodetypes="cc"/><path id="shape1" transform="matrix(1.00059232267584 0 0 1 31.9155930588254 43.1374986372999)" fill="none" stroke="#ffffff" stroke-width="12" stroke-linecap="round" stroke-linejoin="miter" stroke-miterlimit="1.91999995708466" d="M46.7404 0L0 53.94" sodipodi:nodetypes="cc"/><path id="shape02" transform="translate(42.536, 14.12)" fill="none" stroke="#ffffff" stroke-width="12" stroke-linecap="round" stroke-linejoin="round" d="M0 6.24L0 0L69.84 0L69.84 84L61.56 84" sodipodi:nodetypes="ccccc"/><path id="shape2" transform="translate(42.536, 14.12)" fill="none" stroke="#000000" stroke-width="6.24" stroke-linecap="round" stroke-linejoin="round" d="M0 6.24L0 0L69.84 0L69.84 84L61.56 84" sodipodi:nodetypes="ccccc"/><rect id="shape01" transform="translate(17.816, 29.48)" fill="none" stroke="#ffffff" stroke-width="12" stroke-linecap="round" stroke-linejoin="round" width="76.8" height="83.04"/><rect id="shape11" transform="translate(17.816, 29.6599999977159)" fill="none" stroke="#000000" stroke-width="6.24" stroke-linecap="round" stroke-linejoin="round" width="76.8" height="83.04"/><path id="shape3" transform="matrix(1.00059232267584 0 0 1 31.0199995169719 42.49499957074)" fill="none" stroke="#000000" stroke-width="6.24" stroke-linecap="round" stroke-linejoin="miter" stroke-miterlimit="1.92" d="M0 0L49.3807 54.675" sodipodi:nodetypes="cc"/><path id="shape4" transform="matrix(1.00059232267584 0 0 1 31.9205672299767 43.1399982080399)" fill="none" stroke="#000000" stroke-width="6.24" stroke-linecap="round" stroke-linejoin="miter" stroke-miterlimit="1.92" d="M46.7404 0L0 53.94" sodipodi:nodetypes="cc"/>
</svg>
