<?xml version="1.0" standalone="no"?>
<!DOCTYPE svg PUBLIC "-//W3C//DTD SVG 20010904//EN" "http://www.w3.org/TR/2001/REC-SVG-20010904/DTD/svg10.dtd">
<!-- Created using Krita: https://krita.org -->
<svg xmlns="http://www.w3.org/2000/svg" 
    xmlns:xlink="http://www.w3.org/1999/xlink"
    xmlns:krita="http://krita.org/namespaces/svg/krita"
    xmlns:sodipodi="http://sodipodi.sourceforge.net/DTD/sodipodi-0.dtd"
    width="122.88pt"
    height="122.88pt"
    viewBox="0 0 122.88 122.88">
<defs/>
<path id="shape0" transform="translate(27.35925, 17.12145)" fill="none" stroke="#ffffff" stroke-width="9.6" stroke-linecap="square" stroke-linejoin="bevel" d="M0.0893494 93.3075L73.44 93.3065L73.6239 14.7518L57.3623 0.0905019L0 0Z" sodipodi:nodetypes="cccccc"/><path id="shape1" transform="translate(27.3599998191185, 17.1225011157854)" fill="none" stroke="#000000" stroke-width="4.8" stroke-linecap="square" stroke-linejoin="bevel" d="M0.0893494 93.3075L73.44 93.3065L73.6239 14.7518L57.3623 0.0905019L0 0Z" sodipodi:nodetypes="cccccc"/><path id="shape01" transform="translate(63.8999950085789, 28.7988239819316)" fill="none" stroke="#ffffff" stroke-width="9.12" stroke-linecap="square" stroke-linejoin="bevel" d="M0 0.000557331L0.555326 25.3776C27.0021 25.6631 19.5048 -0.138157 0 0.000557331Z" sodipodi:nodetypes="ccc"/><path id="shape02" transform="translate(38.4806409260336, 29.0904013856668)" fill="none" stroke="#ffffff" stroke-width="9.12" stroke-linecap="square" stroke-linejoin="bevel" d="M15.28 0.243787C-5.9598 -2.01946 -1.38932 12.2061 7.10092 12.7734C18.8965 12.686 20.403 26.9592 0.452402 25.3182" sodipodi:nodetypes="ccc"/><path id="shape2" transform="translate(38.419697844796, 29.0904151368588)" fill="none" stroke="#000000" stroke-width="5.04" stroke-linecap="square" stroke-linejoin="bevel" d="M15.28 0.243787C-5.9598 -2.01946 -1.38932 12.2061 7.10092 12.7734C18.8965 12.686 20.403 26.9592 0.452401 25.3182" sodipodi:nodetypes="ccc"/><path id="shape3" transform="translate(63.8999953804204, 28.799997917936)" fill="none" stroke="#000000" stroke-width="5.04" stroke-linecap="square" stroke-linejoin="bevel" d="M0 0.000557328L0.555326 25.3776C27.0021 25.6631 19.5048 -0.138157 0 0.000557328Z" sodipodi:nodetypes="ccc"/><path id="shape03" transform="translate(42.66, 66.4188)" fill="none" stroke="#ffffff" stroke-width="9.12" stroke-linecap="square" stroke-linejoin="bevel" d="M40.68 4.86L34.56 0L0 0.27L7.10543e-15 32.22L42.48 32.22L42.3 5.22L7.2 5.76L1.62 30.6" sodipodi:nodetypes="cccccccc"/><path id="shape4" transform="translate(42.6599969159426, 66.4199951982398)" fill="none" stroke="#000000" stroke-width="4.8" stroke-linecap="square" stroke-linejoin="bevel" d="M40.68 4.86L34.56 0L0 0.27L7.10543e-15 32.22L42.48 32.22L42.3 5.22L7.2 5.76L1.62 30.6" sodipodi:nodetypes="cccccccc"/>
</svg>
