<?xml version="1.0" standalone="no"?>
<!DOCTYPE svg PUBLIC "-//W3C//DTD SVG 20010904//EN" "http://www.w3.org/TR/2001/REC-SVG-20010904/DTD/svg10.dtd">
<!-- Created using Krita: https://krita.org -->
<svg xmlns="http://www.w3.org/2000/svg" 
    xmlns:xlink="http://www.w3.org/1999/xlink"
    xmlns:krita="http://krita.org/namespaces/svg/krita"
    xmlns:sodipodi="http://sodipodi.sourceforge.net/DTD/sodipodi-0.dtd"
    width="122.88pt"
    height="122.88pt"
    viewBox="0 0 122.88 122.88">
<defs/>
<rect id="shape0" transform="translate(25.44, 51.6)" fill="none" stroke="#ffffff" stroke-width="13.92" stroke-linecap="square" stroke-linejoin="bevel" width="72" height="60"/><rect id="shape01" transform="translate(37.44, 15.48)" fill="none" stroke="#ffffff" stroke-width="13.92" stroke-linecap="square" stroke-linejoin="bevel" width="48" height="36"/><rect id="shape1" transform="translate(25.44, 51.6000000000001)" fill="none" stroke="#000000" stroke-width="9.6" stroke-linecap="square" stroke-linejoin="bevel" width="72" height="60"/><rect id="shape2" transform="translate(37.44, 15.48)" fill="none" stroke="#000000" stroke-width="9.6" stroke-linecap="square" stroke-linejoin="bevel" width="48" height="36"/><path id="shape3" transform="translate(41.6099983785525, 71.0899761177448)" fill="none" stroke="#ffffff" stroke-width="9.6" stroke-linecap="square" stroke-linejoin="bevel" d="M10.68 0.0100209C-7.32176 -0.439979 3.83567 14.4154 6.06 14.44C10.8656 14.4498 17.1922 27.28 0 26.56" sodipodi:nodetypes="ccc"/><path id="shape4" transform="translate(68.4899971487598, 70.0649970281914)" fill="none" stroke="#ffffff" stroke-width="9.6" stroke-linecap="square" stroke-linejoin="bevel" d="M0 0L0.36 27.765C11.1787 29.0561 27.6843 6.74987 0 0Z" sodipodi:nodetypes="ccc"/><path id="shape5" transform="translate(47.3399979884495, 21.1799991000287)" fill="none" stroke="#000000" stroke-width="2.4" stroke-linecap="square" stroke-linejoin="miter" stroke-miterlimit="2" d="M0 0L0 24.6" sodipodi:nodetypes="cc"/><path id="shape02" transform="translate(75.2159968166393, 21.3959992402508)" fill="none" stroke="#000000" stroke-width="2.4" stroke-linecap="square" stroke-linejoin="miter" stroke-miterlimit="2" d="M0 0L0 24.6" sodipodi:nodetypes="cc"/><path id="shape03" transform="translate(56.8559976289709, 17.4359994085174)" fill="none" stroke="#000000" stroke-width="2.4" stroke-linecap="square" stroke-linejoin="miter" stroke-miterlimit="2" d="M0 0L0 24.6" sodipodi:nodetypes="cc"/><path id="shape04" transform="translate(66.0719972822397, 17.2919995640366)" fill="none" stroke="#000000" stroke-width="2.4" stroke-linecap="square" stroke-linejoin="miter" stroke-miterlimit="2" d="M0 0L0 24.6" sodipodi:nodetypes="cc"/><path id="shape05" transform="translate(41.6090613918899, 71.0893959879628)" fill="none" stroke="#000000" stroke-width="5.76" stroke-linecap="square" stroke-linejoin="bevel" d="M10.68 0.0100209C-7.32176 -0.439979 3.83567 14.4154 6.06 14.44C10.8656 14.4498 17.1922 27.28 0 26.56" sodipodi:nodetypes="ccc"/><path id="shape06" transform="translate(68.4894191945747, 70.0641945071832)" fill="none" stroke="#000000" stroke-width="5.76" stroke-linecap="square" stroke-linejoin="bevel" d="M0 0L0.36 27.765C11.1787 29.0561 27.6843 6.74987 0 0Z" sodipodi:nodetypes="ccc"/>
</svg>
