<?xml version="1.0" standalone="no"?>
<!DOCTYPE svg PUBLIC "-//W3C//DTD SVG 20010904//EN" "http://www.w3.org/TR/2001/REC-SVG-20010904/DTD/svg10.dtd">
<!-- Created using Krita: https://krita.org -->
<svg xmlns="http://www.w3.org/2000/svg" 
    xmlns:xlink="http://www.w3.org/1999/xlink"
    xmlns:krita="http://krita.org/namespaces/svg/krita"
    xmlns:sodipodi="http://sodipodi.sourceforge.net/DTD/sodipodi-0.dtd"
    width="122.88pt"
    height="122.88pt"
    viewBox="0 0 122.88 122.88">
<defs/>
<ellipse id="shape0" transform="translate(18.2700006501949, 27.93000037154)" rx="8.75999934980508" ry="8.87999962846004" cx="8.75999934980508" cy="8.87999962846004" fill="none" stroke="#ffffff" stroke-width="13.92" stroke-linecap="square" stroke-linejoin="bevel"/><path id="shape01" transform="translate(27.03, 22.815)" fill="none" stroke="#ffffff" stroke-width="13.92" stroke-linecap="round" stroke-linejoin="miter" stroke-miterlimit="1.91999995708466" d="M0 0L0 2.97" sodipodi:nodetypes="cc"/><path id="shape1" transform="translate(27.03, 22.6350000761128)" fill="none" stroke="#000000" stroke-width="7.68" stroke-linecap="round" stroke-linejoin="miter" stroke-miterlimit="1.92" d="M0 0L0 2.97" sodipodi:nodetypes="cc"/><path id="shape02" transform="translate(27, 45.9)" fill="none" stroke="#ffffff" stroke-width="13.92" stroke-linecap="round" stroke-linejoin="miter" stroke-miterlimit="1.91999995708466" krita:marker-fill-method="auto" d="M0.06 0L0 53.58" sodipodi:nodetypes="cc"/><path id="shape03" transform="translate(6.5, 6.50000000000533)" fill="none" stroke="#ffffff" stroke-width="9.6" stroke-linecap="square" stroke-linejoin="bevel" d="M0.19186 11.9104L0 94.2765C0.215734 102.182 3.99208 107.526 11.938 109.871L94.6085 110C103.827 109.831 108.811 103.835 109.787 96.9757L110 12.3603C109.943 6.69291 103.433 -0.0108065 96.186 1.30798e-05L12.1085 0.0856996C7.13697 1.31455 1.54713 4.77649 0.19186 11.9104Z" sodipodi:nodetypes="ccccccccc"/><path id="shape2" transform="translate(6.5, 6.5)" fill="none" stroke="#000000" stroke-width="4.8" stroke-linecap="square" stroke-linejoin="bevel" d="M0.19186 11.9104L0 94.2765C0.215734 102.182 3.99208 107.526 11.938 109.871L94.6085 110C103.827 109.831 108.811 103.835 109.787 96.9757L110 12.3603C109.943 6.69291 103.433 -0.0108065 96.186 1.30798e-05L12.1085 0.0856996C7.13697 1.31455 1.54713 4.77649 0.19186 11.9104Z" sodipodi:nodetypes="ccccccccc"/><path id="shape3" transform="translate(26.9999988527289, 45.8999980496391)" fill="none" stroke="#000000" stroke-width="7.68" stroke-linecap="round" stroke-linejoin="miter" stroke-miterlimit="1.92" krita:marker-fill-method="auto" d="M0.06 0L0 53.58" sodipodi:nodetypes="cc"/><ellipse id="shape04" transform="translate(52.6800006501949, 77.37000037154)" rx="8.75999934980508" ry="8.87999962846004" cx="8.75999934980508" cy="8.87999962846004" fill="none" stroke="#ffffff" stroke-width="13.92" stroke-linecap="square" stroke-linejoin="bevel"/><path id="shape05" transform="translate(61.44, 95.28)" fill="none" stroke="#ffffff" stroke-width="13.92" stroke-linecap="round" stroke-linejoin="miter" stroke-miterlimit="1.91999995708466" d="M0 0L0 4.32" sodipodi:nodetypes="cc"/><ellipse id="shape06" transform="translate(87.3600006501949, 46.32000037154)" rx="8.75999934980508" ry="8.87999962846004" cx="8.75999934980508" cy="8.87999962846004" fill="none" stroke="#ffffff" stroke-width="13.92" stroke-linecap="square" stroke-linejoin="bevel"/><path id="shape07" transform="translate(61.44, 22.68)" fill="none" stroke="#ffffff" stroke-width="13.92" stroke-linecap="round" stroke-linejoin="miter" stroke-miterlimit="1.91999995708466" d="M0 0L0 54" sodipodi:nodetypes="cc"/><path id="shape4" transform="translate(61.44, 22.6799990362933)" fill="none" stroke="#000000" stroke-width="7.68" stroke-linecap="round" stroke-linejoin="miter" stroke-miterlimit="1.92" d="M0 0L0 54" sodipodi:nodetypes="cc"/><path id="shape08" transform="translate(95.956874999283, 64.2487499928296)" fill="none" stroke="#ffffff" stroke-width="13.92" stroke-linecap="round" stroke-linejoin="miter" stroke-miterlimit="1.91999995708466" d="M0 0L0 35.16" sodipodi:nodetypes="cc"/><path id="shape5" transform="translate(95.94, 64.0800012709257)" fill="none" stroke="#000000" stroke-width="7.68" stroke-linecap="round" stroke-linejoin="miter" stroke-miterlimit="1.92" d="M0 0L0 35.16" sodipodi:nodetypes="cc"/><path id="shape09" transform="translate(95.88, 23.4)" fill="none" stroke="#ffffff" stroke-width="13.92" stroke-linecap="round" stroke-linejoin="miter" stroke-miterlimit="1.91999995708466" d="M0 0L0.12 22.32" sodipodi:nodetypes="cc"/><path id="shape6" transform="translate(95.8799930684667, 23.3999983083242)" fill="none" stroke="#000000" stroke-width="7.68" stroke-linecap="round" stroke-linejoin="miter" stroke-miterlimit="1.92" d="M0 0L0.12 22.32" sodipodi:nodetypes="cc"/><ellipse id="shape7" transform="translate(87.3599999695459, 46.3199999299556)" rx="8.75999934980508" ry="8.87999962846004" cx="8.75999934980508" cy="8.87999962846004" fill="none" stroke="#000000" stroke-width="7.68" stroke-linecap="square" stroke-linejoin="bevel"/><ellipse id="shape010" transform="translate(52.6800006501949, 77.3707271168275)" rx="8.75999934980508" ry="8.87999962846004" cx="8.75999934980508" cy="8.87999962846004" fill="none" stroke="#000000" stroke-width="7.68" stroke-linecap="square" stroke-linejoin="bevel"/><ellipse id="shape011" transform="translate(18.2700006501949, 27.93000037154)" rx="8.75999934980508" ry="8.87999962846004" cx="8.75999934980508" cy="8.87999962846004" fill="none" stroke="#000000" stroke-width="7.68" stroke-linecap="square" stroke-linejoin="bevel"/><path id="shape8" transform="translate(61.44, 95.2799931064786)" fill="none" stroke="#000000" stroke-width="7.68" stroke-linecap="round" stroke-linejoin="miter" stroke-miterlimit="1.92" d="M0 0L0 4.32" sodipodi:nodetypes="cc"/>
</svg>
